<svg width="20" height="20" viewBox="0 0 20 20" fill="none" xmlns="http://www.w3.org/2000/svg">
<g clip-path="url(#clip0_3_237)">
<path d="M20 6.25967C20 5.56936 19.4403 5.00968 18.75 5.00968H16.6163C17.1685 4.46499 17.5219 3.75094 17.5219 2.87155C17.5219 1.78874 16.9 0.612488 15.1544 0.612488C12.8575 0.612488 10.9388 3.05811 10.0372 4.42905C9.13503 3.05843 7.15753 0.6128 4.86097 0.6128C3.11534 0.6128 2.49347 1.78905 2.49347 2.87186C2.49347 3.75092 2.85659 4.4653 3.42003 5.00999H1.25003C0.559718 5.00999 3.05176e-05 5.56967 3.05176e-05 6.25999V10.0015H1.26097V18.1375C1.26097 18.8278 1.82064 19.3875 2.51097 19.3875H17.5047C18.195 19.3875 18.7547 18.8278 18.7547 18.1375V10.0012H20V6.25967H20ZM15.1544 1.8628C15.9272 1.8628 16.2719 2.18751 16.2719 2.87188C16.2719 4.26032 14.7222 5.00936 13.2647 5.00936H11.1488C12.0369 3.6903 13.6 1.8628 15.1544 1.8628ZM4.86095 1.86282C6.41564 1.86282 8.0378 3.69032 8.92593 5.00907H6.80937C5.35187 5.00907 3.74343 4.24063 3.74343 2.85219C3.74343 2.16813 4.08812 1.86282 4.86095 1.86282ZM18.75 8.75124H10.625V6.25967H18.75V8.75124ZM1.25001 6.25967H9.37501V8.75124H1.25001V6.25967ZM2.51095 10.0012H9.37501V18.1372H2.51095V10.0012ZM17.505 18.1372H10.625V10.0012H17.505V18.1372Z" fill="white"/>
</g>
<defs>
<clipPath id="clip0_3_237">
<rect width="20" height="20" fill="white"/>
</clipPath>
</defs>
</svg>
